/* XPM */
static char *result[] = {
/* columns rows colors chars-per-pixel */
"64 64 195 2 ",
"   c #1E282D",
".  c #182630",
"X  c #1E2B31",
"o  c #1F3033",
"O  c #202A2F",
"+  c #222D33",
"@  c #252F38",
"#  c #2A2F3B",
"$  c #312E3F",
"%  c #233036",
"&  c #26323A",
"*  c #2A323D",
"=  c #332F42",
"-  c #3A2F48",
";  c #293640",
":  c #2A3A45",
">  c #2C3E4A",
",  c #273741",
"<  c #343144",
"1  c #3B314A",
"2  c #373449",
"3  c #3C3750",
"4  c #41314F",
"5  c #4C2F54",
"6  c #552F5D",
"7  c #453151",
"8  c #4D3259",
"9  c #483154",
"0  c #54325E",
"q  c #402E4B",
"w  c #5B3364",
"e  c #523A66",
"r  c #63326A",
"t  c #68316D",
"y  c #6D3272",
"u  c #713376",
"i  c #76337A",
"p  c #7B337E",
"a  c #2F414E",
"s  c #3C464B",
"d  c #37444C",
"f  c #2D4654",
"g  c #2C4855",
"h  c #314554",
"j  c #324857",
"k  c #344B5B",
"l  c #3D425D",
"z  c #34505F",
"x  c #354F61",
"c  c #3E4D63",
"v  c #365064",
"b  c #395265",
"n  c #3B566A",
"m  c #3E596E",
"M  c #3D5C72",
"N  c #375B71",
"B  c #3E6179",
"V  c #444A49",
"C  c #43535E",
"Z  c #455B6A",
"A  c #585F63",
"S  c #415E75",
"D  c #454162",
"F  c #596166",
"G  c #5B6468",
"H  c #54636C",
"J  c #426077",
"K  c #44637C",
"L  c #496478",
"P  c #556773",
"I  c #596974",
"U  c #797366",
"Y  c #767266",
"T  c #6C6D67",
"R  c #7E3481",
"E  c #446782",
"W  c #466984",
"Q  c #496C86",
"!  c #476D8B",
"~  c #4A6E8A",
"^  c #4C718E",
"/  c #557287",
"(  c #56758C",
")  c #4D7492",
"_  c #4F7A9C",
"`  c #4F7897",
"'  c #507795",
"]  c #557A97",
"[  c #527C9D",
"{  c #597E9B",
"}  c #5F7E96",
"|  c #647987",
" . c #537FA1",
".. c #4F7CA0",
"X. c #833484",
"o. c #873488",
"O. c #5C819D",
"+. c #57809F",
"@. c #78878F",
"#. c #6D899D",
"$. c #65859B",
"%. c #748D9C",
"&. c #5581A4",
"*. c #5B84A4",
"=. c #5584AA",
"-. c #5986AA",
";. c #5688AF",
":. c #5A89AE",
">. c #5789B2",
",. c #5D8DB4",
"<. c #5F90B6",
"1. c #5E91B9",
"2. c #648BAA",
"3. c #698EAB",
"4. c #6288A6",
"5. c #728FA4",
"6. c #6D91AD",
"7. c #7795AB",
"8. c #6291B6",
"9. c #6A95B6",
"0. c #6192BA",
"q. c #6B97B9",
"w. c #7499B3",
"e. c #779AB4",
"r. c #6497C0",
"t. c #6498C1",
"y. c #85949C",
"u. c #8B9599",
"i. c #969C9C",
"p. c #999D9B",
"a. c #979C97",
"s. c #8D908B",
"d. c #A69B88",
"f. c #B5A387",
"g. c #B0A088",
"h. c #ADA898",
"j. c #BBAE96",
"k. c #B6AB97",
"l. c #BAB19D",
"z. c #8699A4",
"x. c #9B9FA1",
"c. c #8DA1AC",
"v. c #9AA5A8",
"b. c #89A2B5",
"n. c #8AA5BA",
"m. c #96ABB5",
"M. c #95AAB7",
"N. c #9AB0BB",
"B. c #A6ABA6",
"V. c #B9B6A9",
"C. c #BABCB8",
"Z. c #AEB2AD",
"A. c #C7B598",
"S. c #D5BB97",
"D. c #D3BC9B",
"F. c #C5BAA5",
"G. c #C1BEB1",
"H. c #DEC199",
"J. c #E5C69C",
"K. c #E5C49A",
"L. c #CAC0AE",
"P. c #D8C5A8",
"I. c #CDC4B1",
"U. c #D2C9B6",
"Y. c #EBCCA2",
"T. c #E3C9A6",
"R. c #F1CFA3",
"E. c #EBD1AD",
"W. c #F4D5AC",
"Q. c #FBDAAE",
"!. c #F6D4A8",
"~. c #FEDCB1",
"^. c #F5D8B0",
"/. c #EBD3B0",
"(. c #FFE1B2",
"). c #92ADC4",
"_. c #9DB5C9",
"`. c #9AB5CA",
"'. c #A1BBCF",
"]. c #A3BCD1",
"[. c #B7C3CC",
"{. c #B5C8D6",
"}. c #C7D3DD",
"|. c #D4D5D6",
" X c #D6D8D9",
".X c #DBDBDC",
"XX c #C8CFD3",
"oX c #CEDBE6",
"OX c #D2DEE9",
"+X c #D0DBE3",
"@X c #D5E1EB",
"#X c #EAEEF1",
"$X c #E7ECF0",
"%X c #EFF2F4",
"&X c None",
/* pixels */
"&X&X&X&X&X&X&X&X&X&X&X&X&X&X&X&X&X&X&X&X&X&X&X&X&X&X&X&X&X&X&X&X&X&X&X&X&X&X&X&X&X&X&X&X&X&X&X&X&X&X&X&X&X&X&X&X&X&X&X&X&X&X&X&X",
"&X&X&X&X&X&X&X&X&X&X&X&X&X&X&X&X&X&X&X&X&X&X&X&X&X&X&X&X&X&X&X&X&X&X&X&X&X&X&X&X&X&X&X&X&X&X&X&X&X&X&X&X&X&X&X&X&X&X&X&X&X&X&X&X",
"&X&X&X&X&X&X&X&X&X&X&X&X&X&X&X&X&X&X&X&X&X&X&X&X&X&X&X&X&X&X&X&X&X&X&X&X&X&X&X&X&X&X&X&X&X&X&X&X&X&X&X&X&X&X&X&X&X&X&X&X&X&X&X&X",
"&X&X&X&X&X&X&X&X&X&X&X&X&X&X&X&X&X&X&X&X&X&X&X&X&X&X&X&X&X&X&X&X&X&X&X&X&X&X&X&X&X&X&X&X&X&X&X&X&X&X&X&X&X&X&X&X&X&X&X&X&X&X&X&X",
"&X&X&X&X&X&X&X&X&X&X&X&X&X&X&X&X&X&X&X&X&X&X&X&X&X&X&X&X&X&X&X&X&X&X&X&X&X&X&X&X&X&X&X&X&X&X&X&X&X&X&X&X&X&X&X&X&X&X&X&X&X&X&X&X",
"&X&X&X&X&X&X&X&X&X&X&X&X&X&X&X&X&X&X&X&X&X&X&X&X&X&X&X&X&X&X&X&X&X&X&X&X&X&X&X&X&X&X&X&X&X&X&X&X&X&X&X&X&X&X&X&X&X&X&X&X&X&X&X&X",
"&X&X&X&X&X&X&X&X&X&X&X&X&X&X&X&X&X&X&X&X&X&X&X&X&X&X&X&X&X&X&X&X&X&X&X&X&X&X&X&X&X&X&X&X&X&X&X&X&X&X&X&X&X&X&X&X&X&X&X&X&X&X&X&X",
"&X&X&X&X&X&X&X&X&X&X&X&X&X&X&X&X&X&X&X&X&X&X&X&X&X&X&X&X&X&X&X&X&X&X&X&X&X&X&X&X&X&X&X&X&X&X&X&X&X&X&X&X&X&X&X&X&X&X&X&X&X&X&X&X",
"&X&X&X&X&X&X&X&X&X&X&X&X&X&X&X&X&X&X&X&X&X&X&X&X&X&X&X&X&X&X&X&X&X&X&X&X&X&X&X&X&X&X&X&X&X&X&X&X&X&X&X&X&X&X&X&X&X&X&X&X&X&X&X&X",
"&X&X&X&X&X&X&X&X&X&X&X&X% % @ % + @ @ @ + + + + + % + @ % & + + + + + + + + @ + + + + + + + + + + + + + &X&X&X&X&X&X&X&X&X&X&X&X",
"&X&X&X&X&X&X&X&X&X&X&X% % & & * : ; : : ; : : : : ; , @ & & ; : : : > : : : : : : : : : : : : > : > : a : &X&X&X&X&X&X&X&X&X&X&X",
"&X&X&X&X&X&X&X&X&X&XX % % & : h k v x x x v v v v j : @ o : h n S M S M S n S S m S M M S M m m m M m n k a &X&X&X&X&X&X&X&X&X&X",
"&X&X&X&X&X&X&X&X% + + + % ; h n E Q ! ! W Q ~ ~ W M j : * h S ^ [ [  .[ [ [ [ [ [ [ [ [ [ { [ [ &.+.[ ^ S h * + &X&X&X&X&X&X&X&X",
"&X&X&X&X&X&X&X< < < * @ & ; j B ^  .4.2.3.4.4.] ^ L Z C Z Z / *.<.0.0.0.0.0.0.0.8.0.0.0.0.0.0.0.0.0.,.*.Q b h : ; &X&X&X&X&X&X&X",
"&X&X&X&X&X&X2 7 8 0 5 - # : j B ' 4.e.`.'.M.5./ K P | @.y.z.6.2.:.,.1.0.0.t.t.t.r.0.r.0.0.0.0.r.r.0.0.,.[ ^ K m k a &X&X&X&X&X&X",
"&X&X&X&Xo & 1 0 y y r 5 < ; g M ) 3.`.{.+X[.y.P C G u.C.XX[.n.3.*.=.,.,.0.0.0.0.0.0.0.0.0.0.0.0.0.0.0.,.,.-.+.^ m h & + &X&X&X&X",
"&X&X&X&Xo & 1 w i X.y 6 - : g N ) 6.].OX#X|.p.A l G x. X#X+X_.6. .&.=.,.<.:.*.&.*.:.,.<.1.0.0.<.0.0.0.,.,.-.[ ~ n a & + &X&X&X&X",
"&X&X&X&Xo * 1 w p o.i 6 - ; g N ) 6.].@X%X Xi.A s G v..X%XOX_.6. .&.;.,.-.) W K W ) *.<.0.0.<.0.0.0.0.:.[ ~ J b h : % + &X&X&X&X",
"&X&X&X&X% # 1 w i X.u 6 - ; g N ) 6.'.OX$X|.i.A s A x. X#XoX_.6.&.&.,.,.&.W b j v E +.<.0.0.0.<.0.0.,.&.~ n h : * & % @ &X&X&X&X",
"&X&X&X&Xo @ - 8 r y r 5 < , g N ) 6.].OX#X|.x.A V A x. X%X+X_.3.&.&.:.,.*.W b k b W &.0.0.0.1.8.0.0.8.&.~ n h > * & & % &X&X&X&X",
"&X&X&X&X% % * 1 9 8 7 = # , f N ) w.].$X%X|.i.A s A x..X#XOX_.6.&.&.>.,.:.[ Q W Q ] :.8.0.0.8.0.0.0.<.:.[ ^ L n j : % % &X&X&X&X",
"&X&X&X&X% % * # = ; # # @ : h N ^ 3.'.OX$X|.i.A V A x. X$XoX_.3. ...;.<.8.,.:.*.:.:.,.<.0.<.<.1.0.0.<.<.,.,.&.~ n a & + &X&X&X&X",
"&X&X&X&X% % @ + % % @ = - 3 l Z E } b.].|.].z.P Z P i.].}.{.n.3.&.&.;.<.0.0.0.0.0.0.0.8.0.0.<.0.0.0.0.0.0.r.<.[ J h * + &X&X&X&X",
"&X&X&X&X&X&Xo % X @ = 4 w w e D D Z ( z.M.b.#./ L / #.b.).n.6.4. .&.:.,.0.0.0.0.0.0.0.1.1.<.8.<.0.0.<.0.0.t.<.] J h & + &X&X&X&X",
"&X&X&X&X&X&X&Xo % * 1 w u i t 8 3 f n / +.*.*.[ ' ] { *.*.*.+.[  .&.:.,.0.0.0.<.<.1.0.8.1.0.0.0.1.0.0.0.0.0.:._ J h & + &X&X&X&X",
"&X&X&X&X&X&X&X&X% * 4 r R X.y 5 < : k B ) _  .[ [ [ [ [ _ _ [ [ &.=.,.<.0.8.1.0.8.0.0.0.0.0.0.0.0.0.0.0.t.0.<.] J h & + &X&X&X&X",
"&X&X&X&X&X&X&X&X@ * 7 r X.X.u 5 ; & k B ) _  . .[  ._ _ _ _ _ [ +.-.:.<.0.0.0.8.0.0.0.0.0.0.0.0.0.0.0.0.t.t.<.+.J h & + &X&X&X&X",
"&X&X&X&X&X&X&X&X+ # 7 w i p t 5 < a z B )  . .[ [ [ [ [ [ [ _ [  .&.:.<.8.0.1.<.<.<.<.<.<.<.<.<.<.<.<.<.8.0.:.' Z f & + &X&X&X&X",
"&X&X&X&X&X&X&Xo % * 1 0 w r 6 q ; : z K ` &.&.[ [ [ [ [ [ [ _ [  .&.=.,.,.,.,.<.:.&.] ) ^ ' ) ' ' ) ^ ) ' ' ^ K v a & + &X&X&X&X",
"&X&X&X&X&X&X&X% % % * - 4 7 1 $ # > v K `  .&. . .[ [ [ [ [ [ [ [ [  .&.-.,.<.,.+.~ M b z z b b b b b b b b z j a * & % &X&X&X&X",
"&X&X&X&X&X&X&X&X% % * % * @ @ + & : k K ^ [ [ [ _ [ [  .[ [ [  .[ [  . .&.:.,.,._ K k a * & * * * * * * * , * & % & % & &X&X&X&X",
"&X&X&X&X&X&X&X&X% % @ + % % O % @ ; h b J W ^ ` [ [ _ _ ......&.=.&. .&.=.;.,.,.&.Q N z a , % % o O o % + O % + + % % &X&X&X&X&X",
"&X&X&X&X&X&X&X&X&X&X&X&X&X&X+ % % & * a j b B ^ ` +._ &._ &.=.=.;.;.;.;.;.>.1.1.:.&.` W N h * % O O &X&X&X&X&X&X&X&X&X&X&X&X&X&X",
"&X&X&X&X&X&X&X&X&X&X&X&X&X&X&X& % % % % * f n W ` +.+.O.*.*.:.3.9.9.9.9.9.9.9.0.9.q.8.4./ n a @ O &X&X&X&X&X&X&X&X&X&X&X&X&X&X&X",
"&X&X&X&X&X&X&X&X&X&X&X&X&X&X&X&X% % + + & a v E ` O.#.%.y.z.c.m.m.M.M.m.m.m.M.M.m.N.N.c.@.H a & o &X&X&X&X&X&X&X&X&X&X&X&X&X&X&X",
"&X&X&X&X&X&X&X&X&X&X&X&X&X&X&X&X&X&XX X % : v E ] #.y.p.h.l.F.L.I.I.I.I.I.I.I.I.U.U.U.V.s.T s @ . &X&X&X&X&X&X&X&X&X&X&X&X&X&X&X",
"&X&X&X&X&X&X&X&X&X&X&X&X&X&X&X&X&X&X&X% & a v E +.%.a.k.S.H.T.E.W.^.W.W.W.W.W.W.^.~.^.T.f.U V % . &X&X&X&X&X&X&X&X&X&X&X&X&X&X&X",
"&X&X&X&X&X&X&X&X&X&X&X&X&X&X&X&X&X&X    % : v E ] %.p.j.S.J.R.Q.Q.Q.Q.Q.Q.Q.Q.Q.Q.(.(.Y.f.U V & . &X&X&X&X&X&X&X&X&X&X&X&X&X&X&X",
"&X&X&X&X&X&X&X&X&X&X&X&X% % % % + + O + & a v E +.%.p.j.S.J.R.!.Q.Q.Q.Q.Q.Q.Q.Q.~.~.~.J.f.U V & . &X&X&X&X&X&X&X&X&X&X&X&X&X&X&X",
"&X&X&X&X&X&X&X&X&X&X&X% % % & * ; : ; ; : g N K +.%.p.j.D.J.Y.W.Q.Q.Q.Q.W.Q.Q.Q.~.(.Q.T.f.U V & . &X&X&X&X&X&X&X&X&X&X&X&X&X&X&X",
"&X&X&X&X&X&X&X&X&X&X&X+ @ & a j b m m m m B E ) { %.a.j.S.K.R.Q.Q.Q.~.Q.Q.Q.Q.Q.Q.(.~.T.f.U V & . &X&X&X&X&X&X&X&X&X&X&X&X&X&X&X",
"&X&X&X&X&X&X&X&X&X&X&X+ % ; j S ^ +.+.[ [ [ _ _ { %.a.j.S.K.R.Q.Q.Q.Q.Q.Q.Q.Q.Q.~.(.~.Y.f.Y V % . &X&X&X&X&X&X&X&X&X&X&X&X&X&X&X",
"&X&X&X&X&X&X&X&X&X&X&XO % : k K [ *.,.,.,.,.&.&.O.#.u.h.A.D.P.P././.W.W.!.W.W.W.W.^./.P.d.T V % . &X&X&X&X&X&X&X&X&X&X&X&X&X&X&X",
"&X&X&X&X&X&X&X&X&X&X&X+ % * a b J ^ [ &.:.>.=.&.O.$.%.u.p.h.B.Z.C.F.P.T.Y.R.J.J.P.P.C.B.s.G s % X &X&X&X&X&X&X&X&X&X&X&X&X&X&X&X",
"&X&X&X&X&X&X&X&X&X&X&X% % & * : f k J ^ [ &.&. .[ [ $.$.4.5.7.e.c.B.V.S.H.K.H.S.F.Z.m.7.( Z a % X &X&X&X&X&X&X&X&X&X&X&X&X&X&X&X",
"&X&X&X&X&X&X&X&X&X&X&X&X% % % + % : k M W ) ` [ [ [ [  .&.&.,.1.9.b.v.l.A.A.A.l.B.c.w.:.^ n a % O &X&X&X&X&X&X&X&X&X&X&X&X&X&X&X",
"&X&X&X&X&X&X&X&X&X&X&X&X&X% + + + & : j b S W ) [  .&.&.=.,.>.1.0.e.b.v.v.B.v.v.c.e.9.:.^ n a % + &X&X&X&X&X&X&X&X&X&X&X&X&X&X&X",
"&X&X&X&X&X&X&X&X&X&X&X&X&X&X&X+ @ & & * > k M ! [ &.;.:.,.,.<.0.8.9.9.w.w.w.7.w.w.q.q.:.^ n a % O &X&X&X&X&X&X&X&X&X&X&X&X&X&X&X",
"&X&X&X&X&X&X&X&X&X&X&X&X&X&X&X% % @ + + & a b W [ &.,.<.8.,.-.*. . . . .&.;.:.,.0.0.0.-.^ n > % O &X&X&X&X&X&X&X&X&X&X&X&X&X&X&X",
"&X&X&X&X&X&X&X&X&X&X&X&X&X&X&X&X&X@ O O % : b W [ :.<.8.8.&.^ K S M M M E ^ [ ;.1.0.0.,.' m > & + &X&X&X&X&X&X&X&X&X&X&X&X&X&X&X",
"&X&X&X&X&X&X&X&X&X&X&X&X&X&X&X&X&X&X&X+ & a b W _ -.,.,.:.' J k > : : > j M ~ [ ;.,.8.:.^ n > % + &X&X&X&X&X&X&X&X&X&X&X&X&X&X&X",
"&X&X&X&X&X&X&X&X&X&X&X&X&X&X&X&X&X&X&X+ & : k M W ^ [ [ ' W b : @ O + % : k M W ) ` ] ' W b > & &X&X&X&X&X&X&X&X&X&X&X&X&X&X&X&X",
"&X&X&X&X&X&X&X&X&X&X&X&X&X&X&X&X&X&X&X% & ; a j v b n m m b j ; O   O + & a h v b n n m b k > &X&X&X&X&X&X&X&X&X&X&X&X&X&X&X&X&X",
"&X&X&X&X&X&X&X&X&X&X&X&X&X&X&X&X&X&X&X% % & & * : ; : : : : &X&X&X&X+ @ & & ; ; : > : > : &X&X&X&X&X&X&X&X&X&X&X&X&X&X&X&X&X&X&X",
"&X&X&X&X&X&X&X&X&X&X&X&X&X&X&X&X&X&X&X% % % % @ % % + @ % &X&X&X&X&X&X% % + @ + + @ + + + &X&X&X&X&X&X&X&X&X&X&X&X&X&X&X&X&X&X&X",
"&X&X&X&X&X&X&X&X&X&X&X&X&X&X&X&X&X&X&X&X&X&X&X&X&X&X&X&X&X&X&X&X&X&X&X&X&X&X&X&X&X&X&X&X&X&X&X&X&X&X&X&X&X&X&X&X&X&X&X&X&X&X&X&X",
"&X&X&X&X&X&X&X&X&X&X&X&X&X&X&X&X&X&X&X&X&X&X&X&X&X&X&X&X&X&X&X&X&X&X&X&X&X&X&X&X&X&X&X&X&X&X&X&X&X&X&X&X&X&X&X&X&X&X&X&X&X&X&X&X",
"&X&X&X&X&X&X&X&X&X&X&X&X&X&X&X&X&X&X&X&X&X&X&X&X&X&X&X&X&X&X&X&X&X&X&X&X&X&X&X&X&X&X&X&X&X&X&X&X&X&X&X&X&X&X&X&X&X&X&X&X&X&X&X&X",
"&X&X&X&X&X&X&X&X&X&X&X&X&X&X&X&X&X&X&X&X&X&X&X&X&X&X&X&X&X&X&X&X&X&X&X&X&X&X&X&X&X&X&X&X&X&X&X&X&X&X&X&X&X&X&X&X&X&X&X&X&X&X&X&X",
"&X&X&X&X&X&X&X&X&X&X&X&X&X&X&X&X&X&X&X&X&X&X&X&X&X&X&X&X&X&X&X&X&X&X&X&X&X&X&X&X&X&X&X&X&X&X&X&X&X&X&X&X&X&X&X&X&X&X&X&X&X&X&X&X",
"&X&X&X&X&X&X&X&X&X&X&X&X&X&X&X&X&X&X&X&X&X&X&X&X&X&X&X&X&X&X&X&X&X&X&X&X&X&X&X&X&X&X&X&X&X&X&X&X&X&X&X&X&X&X&X&X&X&X&X&X&X&X&X&X",
"&X&X&X&X&X&X&X&X&X&X&X&X&X&X&X&X&X&X&X&X&X&X&X&X&X&X&X&X&X&X&X&X&X&X&X&X&X&X&X&X&X&X&X&X&X&X&X&X&X&X&X&X&X&X&X&X&X&X&X&X&X&X&X&X",
"&X&X&X&X&X&X&X&X&X&X&X&X&X&X&X&X&X&X&X&X&X&X&X&X&X&X&X&X&X&X&X&X&X&X&X&X&X&X&X&X&X&X&X&X&X&X&X&X&X&X&X&X&X&X&X&X&X&X&X&X&X&X&X&X",
"&X&X&X&X&X&X&X&X&X&X&X&X&X&X&X&X&X&X&X&X&X&X&X&X&X&X&X&X&X&X&X&X&X&X&X&X&X&X&X&X&X&X&X&X&X&X&X&X&X&X&X&X&X&X&X&X&X&X&X&X&X&X&X&X"
};
