/* XPM */
static char *result[] = {
/* columns rows colors chars-per-pixel */
"64 64 4 1 ",
"  c #696A6A",
". c #837E86",
"X c #9FADB6",
"o c None",
/* pixels */
"XXXXXX     .XXXX.     . .XX..   .XXXX.     .XXXX.     . .XXX. oo",
" .... .XXX. .... .. ..X. .... .. .... .XXX. .... .. ..X. .XX. .o",
".     .....     .X. .XXX. .. .XX.     .....     .X. .XXX. .. .X.",
".           ... .. .XXXXX.  .XXX.           ... .. .XXXXX.  .XXX",
"X.  ..... ..XX.    .XXXX.. .XXXXX.  ..... ..XX.    .XXXX.. .XXXX",
"X. .XXXX. .XXX .... .X..   .XXXXX. .XXXX. .XXX .... .X..   .XXXX",
"XX. .XXXX. .XX .XXX. .  ... .XXXXX. .XXXX. .XX .XXX. .  ... .XX.",
"XX.  .XX. . .. XXXXX. ..XXX. .XXXX.  .XX. . .. XXXXX. ..XXX. .X.",
".. .. .. .X.   .XXXXX .XXXXX. .... .. .. .X.   .XXXXX .XXXXX. .o",
"  .XX.  .XXX.   .X... XXXXXX      .XX.  .XXX.   .X... XXXXXX   o",
". .XXX .XXXX.   ..    .XXXX. .... .XXX .XXXX.   ..    .XXXX. .X.",
". XXXX XXXXX.   . .... ....  .XX. XXXX XXXXX.   . .... ....  .X.",
"  ..X. .XXXX. .X .XXX.        ..  ..X. .XXXX. .X .XXX.        .o",
"..  .   .... .XX XXXXX. .. ...  ..  .   .... .XX XXXXX. .. ... o",
"XXXX   .    .XXX .XXX. .X. XXX .XXXX   .    .XXX .XXX. .X. XXX o",
"XXXXX .X.. .XXXX. .X. .XXX XX .XXXXXX .X.. .XXXX. .X. .XXX XX .o",
"XXXX. .XX.  .XX.   . .XXXX .X XXXXXX. .XX.  .XX.   . .XXXX .X ..",
"X.... .XX.  .... ..  XXXX. .X .XX.... .XX.  .... ..  XXXX. .X ..",
".      ...      .XX. .XX.   .  ..      ...      .XX. .XX.   .  o",
"  .....   ..    .XX.  ...    ..   .....   ..    .XX.  ...    ..o",
". .XXX. .XXX.    ..      .. .XX.. .XXX. .XXX.    ..      .. .X..",
"X. XXXX ..... ..   .... .X. .XXXX. XXXX ..... ..   .... .X. .X..",
"X. XXX.       X. ..XXX. XXX. .XXX. XXX.       X. ..XXX. XXX. .X.",
"X. ....   ... .. .XXXXX .X..  .XX. ....   ... .. .XXXXX .X..  ..",
". .    .  .XX.   .XXXXX. .     .. .    .  .XX.   .XXXXX. .    ..",
" .XX. .X. .XXX X .XXXXX.  ..     .XX. .X. .XXX X .XXXXX.  ..  ..",
" .... XXX. XX. XX ...... .XX..   .... XXX. XX. XX ...... .XX.. o",
"     .X... ..  ..       .XXXXX.      .X... ..  ..       .XXXXX.o",
"..... .      ..    ... .XX.XXX. ..... .      ..    ... .XX.XXX..",
"XXXXX. .... .XX..  .X. ..XX..X. .XXXX. .... .XX..  .X. ..XX..X..",
"XXXXX. .X. .XXXXX. .X. .XXXX.. XXXXXX. .X. .XXXXX. .X. .XXXX.. o",
"XXXXX. ... .XXXXX. ... ..XXX. ..XXXXX. ... .XXXXX. ... ..XXX. .o",
".XXXX.     .XXXX.     . ..X..   .XXXX.     .XXXX.     . ..X.. ..",
" .... .XXX. .... .. ..X. .... .. .... .XXX. .... .. ..X. .... ..",
".     .....     .X. .XXX. .. .XX.     .....     .X. .XXX. .. .X.",
".           ... .. .XXXXX.  .XXX.           ... .. .XXXXX.  .XX.",
"X.  ..... ..XX.    .XXXX.. .XXXXX.  ..... ..XX.    .XXXX.. .XXX.",
"X. .XXXX. .XXX .... .X..   .XXXXX. .XXXX. .XXX .... .X..   .XXX.",
"XX. .XXXX. .XX .XXX. .  ... .XXXXX. .XXXX. .XX .XXX. .  ... .XX.",
"XX.  .XX. . .. XXXXX. ..XXX. .XXXX.  .XX. . .. XXXXX. ..XXX. .X.",
".. .. .. .X.   .XXXXX .XXXXX. .... .. .. .X.   .XXXXX .XXXXX. ..",
"  .XX.  .XXX.   .X... XXXXXX      .XX.  .XXX.   .X... XXXXXX  X.",
". .XXX .XXXX.   ..    .XXXX. .... .XXX .XXXX.   ..    .XXXX. .X.",
". XXXX XXXXX.   . .... ....  .XX. XXXX XXXXX.   . .... ....  .X.",
"  ..X. .XXXX. .X .XXX.        ..  ..X. .XXXX. .X .XXX.        .o",
"..  .   .... .XX XXXXX. .. ...  ..  .   .... .XX XXXXX. .. ... o",
"XXXX   .    .XXX .XXX. .X. XXX .XXXX   .    .XXX .XXX. .X. XXX o",
"XXXXX .X.. .XXXX. .X. .XXX XX .XXXXXX .X.. .XXXX. .X. .XXX XX .o",
"XXXX. .XX.  .XX.   . .XXXX .X XXXXXX. .XX.  .XX.   . .XXXX .X ..",
"X.... .XX.  .... ..  XXXX. .X .XX.... .XX.  .... ..  XXXX. .X ..",
".      ...      .XX. .XX.   .  ..      ...      .XX. .XX.   .  o",
"  .....   ..    .XX.  ...    ..   .....   ..    .XX.  ...    ..o",
". .XXX. .XXX.    ..      .. .XX.. .XXX. .XXX.    ..      .. .XX.",
"X. XXXX ..... ..   .... .X. .XXXX. XXXX ..... ..   .... .X. .XX.",
"X. XXX.       X. ..XXX. XXX. .XXX. XXX.       X. ..XXX. XXX. .X.",
"X. ....   ... .. .XXXXX .X..  .XX. ....   ... .. .XXXXX .X..  .o",
". .    .  .XX.   .XXXXX. .     .. .    .  .XX.   .XXXXX. .    ..",
" .XX. .X. .XXX X .XXXXX.  ..     .XX. .X. .XXX X .XXXXX.  ..  ..",
" .... XXX. XX. XX ...... .XX..   .... XXX. XX. XX ...... .XX.. o",
"     .X... ..  ..       .XXXXX.      .X... ..  ..       .XXXXX.o",
"..... .      ..    ... .XX.XXX. ..... .      ..    ... .XX.XXX..",
"XXXXX. .... .XX..  .X. .XXX..X. .XXXX. .... .XX..  .X. .XXX..X..",
".XXXX. ... .XXXXX. ... .XXXX.. X.XXXX. .XX .XXXXX. ... .XXXX.. o",
"......oo..oo......oo..oo......ooo.....oo..oo......oo..oo......oo"
};
